<svg id="Layer_1" enable-background="new 0 0 512.154 512.154" height="512" viewBox="0 0 512.154 512.154" width="512" xmlns="http://www.w3.org/2000/svg"><g><path d="m80.075 359c0-10.141 3.781-19.393 10-26.443-7.33-8.309-18.049-13.557-30-13.557-22.091 0-40 17.909-40 40 0 56.333 45.667 102 102 102h60c-56.333 0-102-45.667-102-102z" fill="#cee1f2"/><path d="m285.075 299c-32.791 0-59.705 26.673-59.997 59.458-.013 1.378-1.07 2.542-2.311 2.542h-100.384c-1.111 0-2.308-.626-2.308-2 0-33.084-26.916-60-60-60s-60 26.916-60 60c0 48.682 28.665 90.789 70 110.346v22.807c0 11.046 8.954 20 20 20s20-8.954 20-20v-11.743c3.949.387 7.951.59 12 .59h101c4.049 0 8.051-.203 12-.59v11.59c0 11.046 8.954 20 20 20s20-8.954 20-20v-22.654c41.335-19.557 70-61.664 70-110.346 0-33.084-26.916-60-60-60zm-62 142h-101c-45.215 0-82-36.785-82-82 0-11.028 8.972-20 20-20s20 8.972 20 20c0 23.159 18.979 42 42.308 42h100.385c23.122 0 42.101-18.924 42.309-42.186.098-10.926 9.069-19.814 19.999-19.814 11.028 0 20 8.972 20 20-.001 45.215-36.786 82-82.001 82zm-173.629-194.277c19.794-50.675 69.075-84.723 122.629-84.723s102.835 34.048 122.629 84.723c4.019 10.289-1.064 21.887-11.353 25.906-2.39.934-4.852 1.376-7.272 1.376-7.998 0-15.549-4.83-18.634-12.729-13.848-35.455-48.156-59.276-85.37-59.276s-71.522 23.821-85.371 59.277c-4.019 10.289-15.617 15.369-25.906 11.353-10.288-4.02-15.371-15.618-11.352-25.907zm442.629 245.277c0 11.046-8.954 20-20 20h-37c-33.084 0-60-26.916-60-60v-210c0-11.046 8.954-20 20-20s20 8.954 20 20v210c0 11.028 8.972 20 20 20h37c11.046 0 20 8.954 20 20zm-47-220v-30c0-11.046 8.954-20 20-20s20 8.954 20 20v30c0 11.046-8.954 20-20 20s-20-8.954-20-20z" fill="#0023c4"/><path d="m462.057 192h-133.964c-15.316 0-29.573-6.87-39.116-18.849-9.537-11.972-13.045-27.394-9.625-42.311 6.285-27.41 16.559-60.085 24.071-82.669 9.584-28.813 36.427-48.171 66.797-48.171h49.711c30.37 0 57.213 19.358 66.796 48.17 7.512 22.584 17.786 55.26 24.071 82.669 3.42 14.917-.088 30.339-9.625 42.311-9.543 11.98-23.8 18.85-39.116 18.85zm-91.837-152c-13.114 0-24.704 8.357-28.841 20.795-7.236 21.755-17.106 53.119-23.038 78.985-.935 4.076.804 7.042 1.923 8.447 1.123 1.409 3.632 3.772 7.83 3.772h133.964c4.198 0 6.708-2.364 7.83-3.772 1.119-1.405 2.857-4.371 1.923-8.447-5.932-25.867-15.802-57.23-23.038-78.986-4.139-12.437-15.729-20.794-28.842-20.794z" fill="#ff5cf4"/></g></svg>